# AST/ASF file generated using VICON BodyLanguage
# -----------------------------------------------
:version 1.10
:name VICON
:units
  mass 1.0
  length 0.45
  angle deg
:documentation
   .ast/.asf automatically generated from VICON data using
   VICON BodyBuilder and BodyLanguage model FoxedUp or BRILLIANT.MOD
:root
   order TX TY TZ RX RY RZ
   axis XYZ
   position 0 0 0  
   orientation 0 0 0 
:bonedata
  begin
     id 1 
     name lhipjoint
     direction 0.588788 -0.725889 0.355548 
     length 2.37778 
     axis 0 0 0  XYZ
  end
  begin
     id 2 
     name lfemur
     direction 0.34202 -0.939693 0  
     length 6.86393  
     axis 0 0 20  XYZ
    dof rx ry rz
    limits (-160.0 20.0)
           (-70.0 70.0)
           (-60.0 70.0)
  end
  begin
     id 3 
     name ltibia
     direction 0.34202 -0.939693 0   
     length 7.32851   
     axis 0 0 20   XYZ
    dof rx
    limits (-10.0 170.0)
  end
  begin
     id 4 
     name lfoot
     direction 0.0626533 -0.172138 0.983078   
     length 1.98929   
     axis -90 7.62852e-016 20   XYZ
    dof rx rz
    limits (-45.0 90.0)
           (-70.0 20.0)
  end
  begin
     id 5 
     name ltoes
     direction 1.53647e-011 -4.21734e-011 1   
     length 1.00479   
     axis -90 7.62852e-016 20   XYZ
    dof rx
    limits (-90.0 20.0)
  end
  begin
     id 6 
     name rhipjoint
     direction -0.59141 -0.724168 0.354705   
     length 2.38343  
     axis 0 0 0  XYZ 
  end
  begin
     id 7 
     name rfemur
     direction -0.34202 -0.939693 0   
     length 6.95589   
     axis 0 0 -20   XYZ
    dof rx ry rz
    limits (-160.0 20.0)
           (-70.0 70.0)
           (-70.0 60.0)
  end
  begin
     id 8 
     name rtibia
     direction -0.34202 -0.939693 0   
     length 7.32327   
     axis 0 0 -20   XYZ
    dof rx
    limits (-10.0 170.0)
 end
 begin
     id 9 
     name rfoot
     direction -0.0660461 -0.18146 0.981178   
     length 1.85272  
     axis -90 -7.62852e-016 -20   XYZ
    dof rx rz
    limits (-45.0 90.0)
           (-20.0 70.0)
  end
  begin
     id 10 
     name rtoes
     direction -1.53586e-011 -4.21988e-011 1   
     length 0.93746   
     axis -90 -7.62852e-016 -20   XYZ
    dof rx
    limits (-90.0 20.0)
  end
  begin
     id 11 
     name lowerback
     direction -0.0107982 0.991059 0.13299   
     length 1.98691   
     axis 0 0 0   XYZ
    dof rx ry rz
    limits (-20.0 45.0)
           (-30.0 30.0)
           (-30.0 30.0)
  end
  begin
     id 12 
     name upperback
     direction 0.0076296 0.999916 0.0104576   
     length 1.99501   
     axis 0 0 0   XYZ
    dof rx ry rz
    limits (-20.0 45.0)
           (-30.0 30.0)
           (-30.0 30.0)
  end
  begin
     id 13 
     name thorax
     direction 0.01176 0.998615 -0.0512909   
     length 2.03144   
     axis 0 0 0   XYZ
    dof rx ry rz
    limits (-20.0 45.0)
           (-30.0 30.0)
           (-30.0 30.0)
  end
  begin
     id 14 
     name lowerneck
     direction -0.0171909 0.999644 0.0204011   
     length 1.71818   
     axis 0 0 0   XYZ
    dof rx ry rz
    limits (-20.0 45.0)
           (-30.0 30.0)
           (-30.0 30.0)
  end
  begin
     id 15 
     name upperneck
     direction 0.0250902 0.997482 -0.0663316   
     length 1.66199   
     axis 0 0 0   XYZ
    dof rx ry rz
    limits (-20.0 45.0)
           (-30.0 30.0)
           (-30.0 30.0)
  end
  begin
     id 16
     name head
     direction 0.00881535 0.99956 -0.0283365  
     length 1.81545  
     axis 0 0 0   XYZ
    dof rx ry rz
    limits (-20.0 45.0)
           (-30.0 30.0)
           (-30.0 30.0)
  end
  begin
     id 17 
     name lclavicle
     direction 0.840411 0.486876 -0.238035  
     length 3.30409  
     axis 0 0 0   XYZ
    dof ry rz
    limits (-20.0 10.0)
           (0.0 20.0)
  end
  begin
     id 18 
     name lhumerus
     direction 1 -4.48977e-011 -5.16239e-027   
     length 4.62672   
     axis 180 -30 -90   XYZ
    dof rx ry rz
    limits (-60.0 90.0)
           (-90.0 90.0)
           (-90.0 90.0)
  end
  begin
     id 19
     name lradius
     direction 1 -4.48977e-011 -8.71171e-027   
     length 3.11018   
     axis 180 -30 -90   XYZ
    dof rx
    limits (-10.0 170.0)
  end
  begin
     id 20
     name lwrist
     direction 1 -4.48912e-011 -1.03764e-026   
     length 1.55509   
     axis 9.09556e-015 90 90   XYZ
    dof ry
    limits (-180.0 0.0)
 end
  begin
     id 21 
     name lhand
     direction 1 -4.49072e-011 -2.07528e-026   
     length 0.743834   
     axis 1.3242e-014 90 90   XYZ
    dof rx rz
    limits (-90.0 90.0)
           (-45.0 45.0)
  end
  begin
     id 22 
     name lfingers
     direction 1 -4.48909e-011 -4.15056e-026   
     length 0.599698   
     axis 2.64841e-014 90 90   XYZ
    dof rx
    limits (0.0 90.0)
  end
  begin
     id 23
     name lthumb
     direction 0.707107 -6.35013e-011 0.707107   
     length 0.86105   
     axis -90 45 2.85299e-015   XYZ
    dof rx rz
    limits (-45.0 45.0)
           (-45.0 45.0)
  end
  begin
     id 24 
     name rclavicle
     direction -0.835208 0.500237 -0.228452   
     length 3.2716  
     axis 0 0 0   XYZ 
    dof ry rz
    limits (-10.0 20.0)
           (-20.0 0.0)
  end
  begin
     id 25 
     name rhumerus
     direction -1 -4.48978e-011 -5.1953e-028  
     length 4.55919   
     axis 180 30 90   XYZ
    dof rx ry rz
    limits (-90.0 60.0)
           (-90.0 90.0)
           (-90.0 90.0)
  end
  begin
     id 26 
     name rradius
     direction -1 -4.48961e-011 -5.99546e-027   
     length 3.22748   
     axis 180 30 90   XYZ
    dof rx
    limits (-10.0 170.0)
  end
  begin
     id 27 
     name rwrist
     direction -1 -4.48986e-011 -1.03764e-026   
     length 1.61374   
     axis 9.09556e-015 -90 -90   XYZ
    dof ry
    limits (-180.0 0.0)
  end
  begin
     id 28
     name rhand
     direction -1 -4.4899e-011 -2.07528e-026   
     length 0.700882   
     axis 1.3242e-014 -90 -90   XYZ
    dof rx rz
    limits (-90.0 90.0)
           (-45.0 45.0)
  end
  begin
     id 29
     name rfingers
     direction -1 -4.48991e-011 -4.15056e-026   
     length 0.565069   
     axis 2.64841e-014 -90 -90   XYZ
    dof rx
    limits (0.0 90.0)
  end
  begin
     id 30
     name rthumb
     direction -0.707107 -6.34804e-011 0.707107   
     length 0.811329   
     axis -90 -45 -2.85299e-015   XYZ
    dof rx rz
    limits (-45.0 45.0)
           (-45.0 45.0)
  end
:hierarchy
  begin
    root lhipjoint rhipjoint lowerback
    lhipjoint lfemur
    lfemur ltibia
    ltibia lfoot
    lfoot ltoes
    rhipjoint rfemur
    rfemur rtibia
    rtibia rfoot
    rfoot rtoes
    lowerback upperback
    upperback thorax
    thorax lowerneck lclavicle rclavicle
    lowerneck upperneck
    upperneck head
    lclavicle lhumerus
    lhumerus lradius
    lradius lwrist
    lwrist lhand lthumb
    lhand lfingers
    rclavicle rhumerus
    rhumerus rradius
    rradius rwrist
    rwrist rhand rthumb
    rhand rfingers
  end

#!OML:ASF F:\VICON\USERDATA\INSTALL\SteveWalk\SteveWalk.ASF
:FULLY-SPECIFIED
:DEGREES
47
root -0.126337 15.9521 -32.7115 16.938 9.61628 3.5655
lowerback -13.3961 -4.74777 -2.35386
upperback -4.07617 -6.04127 1.80384
thorax 3.62099 -2.99795 2.20618
lowerneck -6.60091 -1.80322 0.74057
upperneck 7.00774 -2.27692 -2.62493
head 3.38885 -1.21747 -1.10399
rclavicle 1.49089e-014 -2.38542e-015
rhumerus -98.4308 -33.2848 13.1015
rradius 11.8872
rwrist 54.7161
rhand -14.6127 -38.2364
rfingers 7.12502
rthumb 11.5383 -67.8988
lclavicle 1.49089e-014 -2.38542e-015
lhumerus -18.2813 -2.48968 80.5546
lradius 52.1634
lwrist 14.0807
lhand -24.7121 -19.5587
lfingers 7.12502
lthumb 1.78961 10.4136
rfemur -50.47 -6.21774 18.8858
rtibia 26.6973
rfoot -4.68876 3.11428
rtoes -27.0995
lfemur 3.13463 -2.01012 -21.5458
ltibia 22.5698
lfoot -15.2094 -11.6507
ltoes -33.5369
48
root -0.12604 15.97 -32.4583 17.0614 9.41783 3.32941
lowerback -13.655 -4.73109 -1.92649
upperback -4.0761 -6.07966 1.99409
thorax 3.74126 -3.01597 2.14037
lowerneck -6.95154 -1.6106 0.781852
upperneck 7.0014 -1.99572 -2.96112
head 3.45809 -1.09307 -1.2145
rclavicle -2.34069e-014 -7.15625e-015
rhumerus -98.2338 -33.7884 13.1299
rradius 11.9037
rwrist 54.8106
rhand -14.7261 -38.2996
rfingers 7.12502
rthumb 11.4289 -67.9681
lclavicle -2.34069e-014 -7.15625e-015
lhumerus -19.0131 -1.82545 80.6553
lradius 52.5449
lwrist 14.0665
lhand -25.2364 -20.089
lfingers 7.12502
lthumb 1.28327 9.88684
rfemur -50.6625 -5.29762 18.5794
rtibia 28.216
rfoot -3.99052 3.86009
rtoes -24.0916
lfemur 2.18052 -2.44487 -21.3147
ltibia 24.8467
lfoot -11.9358 -13.2665
ltoes -29.7664
49
root -0.123743 15.9747 -32.2064 17.261 8.75492 2.80359
lowerback -13.7824 -4.51843 -1.18308
upperback -4.33979 -5.90447 2.24724
thorax 3.47717 -2.92409 2.02584
lowerneck -6.85971 -1.39265 0.565002
upperneck 6.88033 -1.67216 -3.10861
head 3.40605 -0.943623 -1.20542
rclavicle 8.44835e-015 -8.74653e-015
rhumerus -96.8926 -33.9143 11.4023
rradius 11.959
rwrist 53.5589
rhand -14.9817 -38.0369
rfingers 7.12502
rthumb 11.1824 -67.7189
lclavicle 8.44835e-015 -8.74653e-015
lhumerus -20.2124 -1.29332 80.8206
lradius 52.9334
lwrist 14.1788
lhand -25.742 -20.4336
lfingers 7.12502
lthumb 0.794936 9.54468
rfemur -50.9125 -4.13639 18.716
rtibia 29.6062
rfoot -3.55073 4.33416
rtoes -21.2822
lfemur 0.813716 -2.35102 -20.9541
ltibia 27.8333
lfoot -8.46785 -14.276
ltoes -26.537
50
root -0.121809 15.9656 -31.9597 17.6293 7.51057 1.91361
lowerback -13.8597 -3.99809 -0.120313
upperback -4.81191 -5.36027 2.52805
thorax 2.92856 -2.6511 1.83686
lowerneck -6.58062 -1.22894 0.406271
upperneck 6.83049 -1.42398 -3.30184
head 3.34027 -0.830579 -1.22419
rclavicle 1.51822e-014 7.95139e-015
rhumerus -96.3824 -33.6998 11.126
rradius 11.954
rwrist 53.4481
rhand -15.2387 -37.0909
rfingers 7.12502
rthumb 10.9346 -66.7862
lclavicle 1.51822e-014 7.95139e-015
lhumerus -21.7545 -1.07983 80.9835
lradius 53.3659
lwrist 14.5749
lhand -25.604 -20.6619
lfingers 7.12502
lthumb 0.928219 9.31587
rfemur -51.579 -2.91286 19.5618
rtibia 31.117
rfoot -3.43709 4.82151
rtoes -20.0297
lfemur -0.642786 -1.83888 -20.3757
ltibia 31.0718
lfoot -4.165 -14.9127
ltoes -23.5869
51
root -0.114637 15.95 -31.7262 17.9866 6.14227 1.04257
lowerback -14.5955 -3.40788 0.89125
upperback -4.65909 -4.74191 2.70908
thorax 3.39613 -2.34299 1.51532
lowerneck -6.88676 -1.15817 0.705443
upperneck 6.65128 -1.32154 -3.81973
head 3.33807 -0.793956 -1.44566
rclavicle -4.00303e-014 2.62396e-014
rhumerus -98.1711 -34.605 14.3824
rradius 11.8464
rwrist 56.3029
rhand -15.2023 -36.6769
rfingers 7.12502
rthumb 10.9697 -66.3703
lclavicle -4.00303e-014 2.62396e-014
lhumerus -22.3781 -0.766283 81.0303
lradius 53.7124
lwrist 15.0081
lhand -25.3112 -20.2965
lfingers 7.12502
lthumb 1.21098 9.67978
rfemur -52.3201 -1.87372 20.5717
rtibia 32.7413
rfoot -4.03629 4.99719
rtoes -22.4495
lfemur -2.14031 -1.29116 -19.8533
ltibia 34.3849
lfoot 1.77292 -14.4753
ltoes -10.2653
52
root -0.114244 15.9488 -31.4747 17.6859 6.22775 0.744595
lowerback -14.5387 -3.4251 1.45242
upperback -4.45438 -4.85378 2.79929
thorax 3.54529 -2.39695 1.27302
lowerneck -7.33931 -1.05489 1.13094
upperneck 6.77695 -1.17545 -4.41019
head 3.47326 -0.740191 -1.72113
rclavicle -1.93815e-015 -1.66979e-014
rhumerus -97.9695 -35.6912 13.8847
rradius 11.9472
rwrist 56.4767
rhand -14.8658 -38.0286
rfingers 7.12502
rthumb 11.2941 -67.7046
lclavicle -1.93815e-015 -1.66979e-014
lhumerus -23.1759 -0.347417 81.0384
lradius 53.9362
lwrist 15.2416
lhand -25.551 -19.8248
lfingers 7.12502
lthumb 0.979415 10.1526
rfemur -51.8589 -1.70466 21.0065
rtibia 34.2923
rfoot -5.35654 4.28073
rtoes -25.2148
lfemur -3.21841 -1.55814 -19.3484
ltibia 37.7881
lfoot 7.29174 -13.5115
ltoes 2.01091
53
root -0.110326 15.95 -31.2306 17.6524 5.8641 0.446756
lowerback -14.5893 -3.27391 1.98758
upperback -4.3929 -4.73768 2.8699
thorax 3.59804 -2.33777 1.06369
lowerneck -7.18638 -0.871472 1.17074
upperneck 6.37615 -0.939492 -4.5069
head 3.31244 -0.620852 -1.73934
rclavicle 1.32689e-014 -3.18055e-015
rhumerus -96.9313 -36.4887 12.1067
rradius 11.9561
rwrist 55.3867
rhand -15.0279 -37.6907
rfingers 7.12502
rthumb 11.1379 -67.3751
lclavicle 1.32689e-014 -3.18055e-015
lhumerus -24.0627 -0.127306 81.1437
lradius 53.952
lwrist 15.6427
lhand -25.6228 -19.9777
lfingers 7.12502
lthumb 0.91005 10.0001
rfemur -51.6743 -1.47933 21.5256
rtibia 35.736
rfoot -6.47072 4.96851
rtoes -23.3174
lfemur -4.69973 -1.22847 -19.0739
ltibia 41.0705
lfoot 10.0458 -13.5151
ltoes -1.85028
54
root -0.112044 15.9482 -31.028 17.8932 4.61452 -0.157503
lowerback -14.1318 -2.74347 2.56511
upperback -4.66422 -4.09536 2.98698
thorax 3.02799 -2.02728 1.00584
lowerneck -6.46665 -0.723528 1.02421
upperneck 5.61939 -0.763711 -4.36402
head 2.91996 -0.516526 -1.63465
rclavicle 2.79789e-014 -1.66979e-014
rhumerus -94.6427 -37.0678 8.14481
rradius 12.0604
rwrist 52.6139
rhand -15.1272 -37.8099
rfingers 7.12502
rthumb 11.0421 -67.4994
lclavicle 2.79789e-014 -1.66979e-014
lhumerus -25.1301 -0.271995 81.3131
lradius 53.9351
lwrist 15.9891
lhand -25.7109 -19.6957
lfingers 7.12502
lthumb 0.824953 10.2824
rfemur -51.9409 -0.356577 22.1565
rtibia 36.8935
rfoot -6.85644 6.17899
rtoes -18.9175
lfemur -6.75248 -0.0957738 -18.7795
ltibia 44.4191
lfoot 12.0854 -14.3524
ltoes -7.42799
55
root -0.124364 15.9785 -30.7801 17.5263 4.96826 -0.112753
lowerback -13.3795 -2.86225 2.48069
upperback -4.93075 -4.20037 3.05552
thorax 2.35469 -2.08796 1.15485
lowerneck -5.76163 -0.669071 0.89568
upperneck 5.36704 -0.692244 -4.32723
head 2.70328 -0.472474 -1.58383
rclavicle -3.56818e-014 2.06736e-014
rhumerus -93.5433 -37.2637 6.27857
rradius 12.1446
rwrist 51.4111
rhand -15.3366 -36.6485
rfingers 7.12502
rthumb 10.8401 -66.3488
lclavicle -3.56818e-014 2.06736e-014
lhumerus -26.5122 -0.582727 81.6071
lradius 53.8954
lwrist 16.4104
lhand -26.0729 -19.0454
lfingers 7.12502
lthumb 0.475376 10.9338
rfemur -50.9751 -0.480124 22.3245
rtibia 37.8111
rfoot -7.77735 5.75424
rtoes -17.5634
lfemur -8.03544 -0.343752 -18.5155
ltibia 47.5654
lfoot 14.4731 -15.0588
ltoes -8.5913
